<?xml version="1.0" encoding="UTF-8" standalone="no"?>
<!DOCTYPE svg PUBLIC "-//W3C//DTD SVG 1.1//EN" "http://www.w3.org/Graphics/SVG/1.1/DTD/svg11.dtd">
<svg xmlns="http://www.w3.org/2000/svg" version="1.1" viewBox="0 0 1200 1200">
<g stroke-width="2.00" fill="none" stroke-linecap="butt">
<path stroke="#94969a" vector-effect="non-scaling-stroke" d="
  M 544.15 511.16
  L 599.24 541.00
  A 1.72 1.71 -45.2 0 0 600.88 540.99
  L 655.75 511.17
  A 0.84 0.84 -14.3 0 0 656.19 510.43
  L 656.19 439.82
  A 0.73 0.70 -80.3 0 0 655.73 439.14
  L 600.77 419.10
  A 2.43 2.31 -43.5 0 0 599.16 419.10
  L 544.41 438.94
  A 1.00 1.00 -10.0 0 0 543.75 439.88
  L 543.75 510.49
  A 0.77 0.76 14.6 0 0 544.15 511.16"
/>
<path stroke="#94969a" vector-effect="non-scaling-stroke" d="
  M 510.00 525.27
  A 0.27 0.27 0.0 0 0 509.73 525.00
  L 240.27 525.00
  A 0.27 0.27 0.0 0 0 240.00 525.27
  L 240.00 539.73
  A 0.27 0.27 0.0 0 0 240.27 540.00
  L 509.73 540.00
  A 0.27 0.27 0.0 0 0 510.00 539.73
  L 510.00 525.27"
/>
<path stroke="#94969a" vector-effect="non-scaling-stroke" d="
  M 959.99 525.44
  A 0.44 0.44 0.0 0 0 959.55 525.00
  L 690.45 525.00
  A 0.44 0.44 0.0 0 0 690.01 525.44
  L 690.01 539.56
  A 0.44 0.44 0.0 0 0 690.45 540.00
  L 959.55 540.00
  A 0.44 0.44 0.0 0 0 959.99 539.56
  L 959.99 525.44"
/>
<path stroke="#94969a" vector-effect="non-scaling-stroke" d="
  M 675.31 643.95
  L 675.25 607.85
  A 0.85 0.84 90.0 0 0 674.41 607.00
  L 657.30 607.06
  A 0.50 0.49 -90.0 0 0 656.81 607.56
  Q 656.70 646.15 656.86 684.75
  Q 656.90 694.51 656.25 704.27
  A 0.66 0.64 -88.3 0 0 656.90 704.98
  L 673.56 704.83
  A 0.61 0.55 2.0 0 0 674.16 704.32
  L 675.00 694.78
  Q 675.18 692.73 676.18 694.45
  Q 683.36 706.84 697.75 705.79
  C 721.60 704.04 723.74 671.24 720.15 654.22
  C 717.31 640.78 708.40 630.78 693.50 632.24
  Q 681.30 633.44 675.55 643.99
  Q 675.31 644.43 675.31 643.95"
/>
<path stroke="#94969a" vector-effect="non-scaling-stroke" d="
  M 462.20 693.93
  C 454.63 695.68 452.75 691.20 452.75 684.75
  C 452.75 673.91 453.78 660.74 452.00 650.75
  C 448.74 632.45 428.73 629.89 414.01 633.30
  Q 398.35 636.93 395.48 651.80
  A 1.17 1.16 6.6 0 0 396.58 653.18
  L 413.69 653.91
  A 0.65 0.62 9.3 0 0 414.33 653.47
  C 415.74 648.70 416.50 645.50 421.19 644.44
  C 432.93 641.78 434.57 651.84 434.25 660.50
  A 0.52 0.51 -89.4 0 1 433.75 661.00
  C 418.55 661.32 395.41 659.01 392.45 680.03
  C 390.61 693.10 396.25 704.28 410.51 705.70
  Q 426.96 707.33 435.36 693.14
  Q 436.65 690.97 436.79 693.49
  C 437.54 707.04 453.09 706.85 462.22 703.61
  A 0.71 0.71 80.1 0 0 462.69 702.94
  L 462.69 694.32
  A 0.40 0.40 -6.4 0 0 462.20 693.93"
/>
<path stroke="#94969a" vector-effect="non-scaling-stroke" d="
  M 586.56 672.56
  L 633.81 672.32
  A 0.52 0.51 -89.4 0 0 634.32 671.81
  C 634.48 652.03 626.13 633.47 603.90 632.14
  C 586.71 631.11 572.69 639.18 568.19 656.19
  C 563.87 672.52 567.90 696.37 585.81 703.19
  Q 594.14 706.36 604.75 705.75
  Q 624.17 704.64 633.15 687.28
  A 0.51 0.51 16.1 0 0 632.74 686.54
  L 616.57 685.11
  A 0.68 0.67 14.0 0 0 615.88 685.52
  Q 613.55 691.04 607.76 692.77
  C 593.69 696.98 585.86 685.60 586.05 673.05
  A 0.52 0.50 -0.0 0 1 586.56 672.56"
/>
<path stroke="#94969a" vector-effect="non-scaling-stroke" d="
  M 741.25 658.00
  C 735.94 685.44 748.67 708.72 779.48 705.65
  C 796.63 703.94 806.99 692.52 808.50 675.00
  C 810.72 649.24 800.22 630.32 771.92 632.10
  C 755.84 633.10 744.44 641.52 741.25 658.00"
/>
<path stroke="#94969a" vector-effect="non-scaling-stroke" d="
  M 490.71 641.60
  Q 490.77 640.35 490.45 635.22
  A 1.29 1.29 88.4 0 0 489.16 634.00
  L 477.25 634.00
  A 0.52 0.51 90.0 0 0 476.74 634.52
  L 476.99 704.19
  A 0.82 0.81 89.6 0 0 477.80 705.00
  L 491.44 705.00
  A 0.56 0.56 0.0 0 0 492.00 704.44
  Q 492.00 688.00 491.84 672.25
  C 491.76 664.32 491.76 652.95 495.98 645.96
  C 499.00 640.99 503.66 645.35 504.20 649.26
  Q 505.29 657.09 505.00 665.00
  Q 504.68 673.68 505.18 704.31
  A 0.54 0.50 89.4 0 0 505.68 704.84
  L 519.31 704.84
  A 0.54 0.51 -89.4 0 0 519.82 704.31
  Q 520.27 680.97 520.00 671.00
  C 519.91 667.65 519.22 639.52 529.04 644.35
  C 533.39 646.49 533.18 657.35 533.15 661.50
  Q 533.00 682.88 533.00 704.05
  A 0.93 0.90 89.7 0 0 533.91 704.98
  L 547.31 704.84
  A 0.54 0.52 -90.0 0 0 547.82 704.31
  Q 548.14 680.16 548.08 656.00
  C 548.05 643.90 545.18 627.93 528.65 632.81
  C 523.40 634.36 520.35 639.28 518.31 644.08
  Q 517.74 645.40 517.53 643.98
  C 515.20 628.25 497.17 628.51 492.19 641.90
  Q 490.48 646.52 490.71 641.60"
/>
<path stroke="#94969a" vector-effect="non-scaling-stroke" d="
  M 352.71 691.81
  Q 353.28 704.33 351.50 712.25
  C 348.67 724.80 331.68 725.33 327.71 712.66
  A 0.63 0.60 77.5 0 0 327.07 712.23
  L 309.63 714.19
  A 0.46 0.45 79.4 0 0 309.25 714.76
  C 312.96 729.56 325.73 734.01 339.81 733.81
  C 360.15 733.52 371.69 721.81 371.00 701.50
  Q 370.58 689.04 371.24 634.51
  A 0.50 0.50 -89.4 0 0 370.74 634.00
  L 354.47 634.00
  A 0.74 0.71 2.1 0 0 353.73 634.66
  L 352.97 644.72
  Q 352.87 645.97 352.26 644.89
  C 347.20 635.92 339.26 632.16 329.02 633.31
  C 315.54 634.83 309.48 645.01 307.21 657.77
  C 304.25 674.43 306.73 702.60 329.51 703.80
  Q 344.89 704.62 352.43 691.75
  Q 352.69 691.32 352.71 691.81"
/>
<path stroke="#94969a" vector-effect="non-scaling-stroke" d="
  M 860.82 656.70
  L 845.85 634.63
  A 1.44 1.44 72.8 0 0 844.66 634.00
  L 826.32 634.00
  Q 825.39 634.00 825.95 634.75
  L 850.54 667.64
  A 1.14 1.14 -45.5 0 1 850.55 668.99
  L 824.83 704.04
  Q 824.12 705.00 825.31 705.00
  L 843.31 705.00
  A 1.18 1.16 -72.8 0 0 844.28 704.48
  L 860.82 680.15
  A 0.73 0.71 45.3 0 1 862.01 680.17
  L 878.22 704.34
  A 1.00 0.98 -14.5 0 0 878.99 704.78
  Q 888.49 705.34 897.99 704.78
  Q 898.50 704.75 898.21 704.35
  L 872.29 668.96
  A 1.39 1.38 -44.8 0 1 872.30 667.32
  L 896.40 635.20
  Q 897.25 634.06 895.83 634.05
  L 877.91 634.00
  A 1.31 1.28 -72.2 0 0 876.85 634.56
  L 861.60 656.71
  A 0.48 0.47 45.4 0 1 860.82 656.70"
/>
<path stroke="#94969a" vector-effect="non-scaling-stroke" d="
  M 960.00 787.94
  A 0.44 0.44 0.0 0 0 959.56 787.50
  L 240.44 787.50
  A 0.44 0.44 0.0 0 0 240.00 787.94
  L 240.00 802.06
  A 0.44 0.44 0.0 0 0 240.44 802.50
  L 959.56 802.50
  A 0.44 0.44 0.0 0 0 960.00 802.06
  L 960.00 787.94"
/>
<path stroke="#94969a" vector-effect="non-scaling-stroke" d="
  M 562.12 443.53
  L 599.35 460.32
  A 1.82 1.82 0.0 0 0 600.85 460.32
  L 637.88 443.58
  Q 639.25 442.96 637.83 442.44
  L 601.37 429.34
  Q 599.83 428.79 598.28 429.35
  L 562.17 442.46
  Q 560.83 442.95 562.12 443.53"
/>
<path stroke="#94969a" vector-effect="non-scaling-stroke" d="
  M 553.69 505.54
  L 594.57 527.77
  A 0.46 0.46 -75.8 0 0 595.25 527.36
  L 595.25 469.82
  A 1.57 1.55 -78.2 0 0 594.33 468.39
  L 554.18 450.34
  A 0.80 0.79 -78.0 0 0 553.07 451.07
  L 553.25 504.78
  A 0.88 0.84 -76.3 0 0 553.69 505.54"
/>
<path stroke="#94969a" vector-effect="non-scaling-stroke" d="
  M 604.94 469.08
  L 604.75 527.36
  A 0.48 0.47 75.8 0 0 605.45 527.78
  L 646.31 505.50
  A 0.87 0.84 -15.3 0 0 646.75 504.76
  L 646.81 450.94
  A 0.63 0.62 -12.0 0 0 645.93 450.37
  L 605.24 468.61
  A 0.52 0.50 78.8 0 0 604.94 469.08"
/>
<path stroke="#94969a" vector-effect="non-scaling-stroke" d="
  M 609.2186 442.6711
  A 9.23 4.65 1.0 0 0 600.0712 437.8607
  A 9.23 4.65 1.0 0 0 590.7614 442.3489
  A 9.23 4.65 1.0 0 0 599.9088 447.1593
  A 9.23 4.65 1.0 0 0 609.2186 442.6711"
/>
<path stroke="#94969a" vector-effect="non-scaling-stroke" d="
  M 588.5551 482.6839
  A 6.38 4.12 65.9 0 0 589.7109 475.1777
  A 6.38 4.12 65.9 0 0 583.3449 471.0361
  A 6.38 4.12 65.9 0 0 582.1891 478.5423
  A 6.38 4.12 65.9 0 0 588.5551 482.6839"
/>
<path stroke="#94969a" vector-effect="non-scaling-stroke" d="
  M 576.7520 493.1779
  A 6.37 4.13 65.1 0 0 577.8161 485.6611
  A 6.37 4.13 65.1 0 0 571.3880 481.6221
  A 6.37 4.13 65.1 0 0 570.3239 489.1389
  A 6.37 4.13 65.1 0 0 576.7520 493.1779"
/>
<path stroke="#94969a" vector-effect="non-scaling-stroke" d="
  M 564.9029 503.4468
  A 6.44 4.14 67.9 0 0 566.3158 495.9224
  A 6.44 4.14 67.9 0 0 560.0571 491.5132
  A 6.44 4.14 67.9 0 0 558.6442 499.0376
  A 6.44 4.14 67.9 0 0 564.9029 503.4468"
/>
<path stroke="#94969a" vector-effect="non-scaling-stroke" d="
  M 614.6201 488.9861
  A 7.38 4.79 116.3 0 0 622.1842 484.4923
  A 7.38 4.79 116.3 0 0 621.1599 475.7539
  A 7.38 4.79 116.3 0 0 613.5958 480.2477
  A 7.38 4.79 116.3 0 0 614.6201 488.9861"
/>
<path stroke="#94969a" vector-effect="non-scaling-stroke" d="
  M 631.2590 500.3024
  A 7.33 4.85 115.2 0 0 638.7684 495.7350
  A 7.33 4.85 115.2 0 0 637.5010 487.0376
  A 7.33 4.85 115.2 0 0 629.9916 491.6050
  A 7.33 4.85 115.2 0 0 631.2590 500.3024"
/>
<path stroke="#94969a" vector-effect="non-scaling-stroke" d="
  M 686.61 692.92
  Q 690.88 694.20 694.67 691.64
  C 704.86 684.75 704.75 655.68 696.21 647.50
  C 691.40 642.90 684.29 644.15 680.17 649.12
  C 672.40 658.49 672.18 688.56 686.61 692.92"
/>
<path stroke="#94969a" vector-effect="non-scaling-stroke" d="
  M 413.02 689.83
  C 416.46 694.71 423.96 693.51 427.75 690.00
  Q 435.49 682.84 434.07 671.50
  A 0.58 0.57 86.0 0 0 433.50 671.00
  C 425.36 671.07 411.08 669.18 411.37 682.33
  C 411.43 685.09 411.59 687.80 413.02 689.83"
/>
<path stroke="#94969a" vector-effect="non-scaling-stroke" d="
  M 616.30 660.32
  C 615.64 638.94 587.94 637.28 586.41 660.05
  A 0.88 0.87 -88.2 0 0 587.28 660.99
  L 615.81 660.83
  A 0.50 0.49 -1.7 0 0 616.30 660.32"
/>
<path stroke="#94969a" vector-effect="non-scaling-stroke" d="
  M 759.50 671.11
  C 760.02 680.37 761.62 693.10 773.75 693.25
  C 782.59 693.36 786.39 688.87 788.29 680.50
  C 790.51 670.70 791.68 647.21 778.00 645.00
  C 761.40 642.32 758.80 658.72 759.50 671.11"
/>
<path stroke="#94969a" vector-effect="non-scaling-stroke" d="
  M 336.55 690.72
  C 343.45 692.45 348.12 687.90 350.55 681.73
  C 354.03 672.88 353.71 659.55 348.61 651.36
  C 343.77 643.59 332.49 644.02 328.81 652.06
  C 324.41 661.68 321.90 687.06 336.55 690.72"
/>
</g>
<path fill="#393e46" d="
  M 0.00 0.00
  L 1200.00 0.00
  L 1200.00 1200.00
  L 0.00 1200.00
  L 0.00 0.00
  Z
  M 544.15 511.16
  L 599.24 541.00
  A 1.72 1.71 -45.2 0 0 600.88 540.99
  L 655.75 511.17
  A 0.84 0.84 -14.3 0 0 656.19 510.43
  L 656.19 439.82
  A 0.73 0.70 -80.3 0 0 655.73 439.14
  L 600.77 419.10
  A 2.43 2.31 -43.5 0 0 599.16 419.10
  L 544.41 438.94
  A 1.00 1.00 -10.0 0 0 543.75 439.88
  L 543.75 510.49
  A 0.77 0.76 14.6 0 0 544.15 511.16
  Z
  M 510.00 525.27
  A 0.27 0.27 0.0 0 0 509.73 525.00
  L 240.27 525.00
  A 0.27 0.27 0.0 0 0 240.00 525.27
  L 240.00 539.73
  A 0.27 0.27 0.0 0 0 240.27 540.00
  L 509.73 540.00
  A 0.27 0.27 0.0 0 0 510.00 539.73
  L 510.00 525.27
  Z
  M 959.99 525.44
  A 0.44 0.44 0.0 0 0 959.55 525.00
  L 690.45 525.00
  A 0.44 0.44 0.0 0 0 690.01 525.44
  L 690.01 539.56
  A 0.44 0.44 0.0 0 0 690.45 540.00
  L 959.55 540.00
  A 0.44 0.44 0.0 0 0 959.99 539.56
  L 959.99 525.44
  Z
  M 675.31 643.95
  L 675.25 607.85
  A 0.85 0.84 90.0 0 0 674.41 607.00
  L 657.30 607.06
  A 0.50 0.49 -90.0 0 0 656.81 607.56
  Q 656.70 646.15 656.86 684.75
  Q 656.90 694.51 656.25 704.27
  A 0.66 0.64 -88.3 0 0 656.90 704.98
  L 673.56 704.83
  A 0.61 0.55 2.0 0 0 674.16 704.32
  L 675.00 694.78
  Q 675.18 692.73 676.18 694.45
  Q 683.36 706.84 697.75 705.79
  C 721.60 704.04 723.74 671.24 720.15 654.22
  C 717.31 640.78 708.40 630.78 693.50 632.24
  Q 681.30 633.44 675.55 643.99
  Q 675.31 644.43 675.31 643.95
  Z
  M 462.20 693.93
  C 454.63 695.68 452.75 691.20 452.75 684.75
  C 452.75 673.91 453.78 660.74 452.00 650.75
  C 448.74 632.45 428.73 629.89 414.01 633.30
  Q 398.35 636.93 395.48 651.80
  A 1.17 1.16 6.6 0 0 396.58 653.18
  L 413.69 653.91
  A 0.65 0.62 9.3 0 0 414.33 653.47
  C 415.74 648.70 416.50 645.50 421.19 644.44
  C 432.93 641.78 434.57 651.84 434.25 660.50
  A 0.52 0.51 -89.4 0 1 433.75 661.00
  C 418.55 661.32 395.41 659.01 392.45 680.03
  C 390.61 693.10 396.25 704.28 410.51 705.70
  Q 426.96 707.33 435.36 693.14
  Q 436.65 690.97 436.79 693.49
  C 437.54 707.04 453.09 706.85 462.22 703.61
  A 0.71 0.71 80.1 0 0 462.69 702.94
  L 462.69 694.32
  A 0.40 0.40 -6.4 0 0 462.20 693.93
  Z
  M 586.56 672.56
  L 633.81 672.32
  A 0.52 0.51 -89.4 0 0 634.32 671.81
  C 634.48 652.03 626.13 633.47 603.90 632.14
  C 586.71 631.11 572.69 639.18 568.19 656.19
  C 563.87 672.52 567.90 696.37 585.81 703.19
  Q 594.14 706.36 604.75 705.75
  Q 624.17 704.64 633.15 687.28
  A 0.51 0.51 16.1 0 0 632.74 686.54
  L 616.57 685.11
  A 0.68 0.67 14.0 0 0 615.88 685.52
  Q 613.55 691.04 607.76 692.77
  C 593.69 696.98 585.86 685.60 586.05 673.05
  A 0.52 0.50 -0.0 0 1 586.56 672.56
  Z
  M 741.25 658.00
  C 735.94 685.44 748.67 708.72 779.48 705.65
  C 796.63 703.94 806.99 692.52 808.50 675.00
  C 810.72 649.24 800.22 630.32 771.92 632.10
  C 755.84 633.10 744.44 641.52 741.25 658.00
  Z
  M 490.71 641.60
  Q 490.77 640.35 490.45 635.22
  A 1.29 1.29 88.4 0 0 489.16 634.00
  L 477.25 634.00
  A 0.52 0.51 90.0 0 0 476.74 634.52
  L 476.99 704.19
  A 0.82 0.81 89.6 0 0 477.80 705.00
  L 491.44 705.00
  A 0.56 0.56 0.0 0 0 492.00 704.44
  Q 492.00 688.00 491.84 672.25
  C 491.76 664.32 491.76 652.95 495.98 645.96
  C 499.00 640.99 503.66 645.35 504.20 649.26
  Q 505.29 657.09 505.00 665.00
  Q 504.68 673.68 505.18 704.31
  A 0.54 0.50 89.4 0 0 505.68 704.84
  L 519.31 704.84
  A 0.54 0.51 -89.4 0 0 519.82 704.31
  Q 520.27 680.97 520.00 671.00
  C 519.91 667.65 519.22 639.52 529.04 644.35
  C 533.39 646.49 533.18 657.35 533.15 661.50
  Q 533.00 682.88 533.00 704.05
  A 0.93 0.90 89.7 0 0 533.91 704.98
  L 547.31 704.84
  A 0.54 0.52 -90.0 0 0 547.82 704.31
  Q 548.14 680.16 548.08 656.00
  C 548.05 643.90 545.18 627.93 528.65 632.81
  C 523.40 634.36 520.35 639.28 518.31 644.08
  Q 517.74 645.40 517.53 643.98
  C 515.20 628.25 497.17 628.51 492.19 641.90
  Q 490.48 646.52 490.71 641.60
  Z
  M 352.71 691.81
  Q 353.28 704.33 351.50 712.25
  C 348.67 724.80 331.68 725.33 327.71 712.66
  A 0.63 0.60 77.5 0 0 327.07 712.23
  L 309.63 714.19
  A 0.46 0.45 79.4 0 0 309.25 714.76
  C 312.96 729.56 325.73 734.01 339.81 733.81
  C 360.15 733.52 371.69 721.81 371.00 701.50
  Q 370.58 689.04 371.24 634.51
  A 0.50 0.50 -89.4 0 0 370.74 634.00
  L 354.47 634.00
  A 0.74 0.71 2.1 0 0 353.73 634.66
  L 352.97 644.72
  Q 352.87 645.97 352.26 644.89
  C 347.20 635.92 339.26 632.16 329.02 633.31
  C 315.54 634.83 309.48 645.01 307.21 657.77
  C 304.25 674.43 306.73 702.60 329.51 703.80
  Q 344.89 704.62 352.43 691.75
  Q 352.69 691.32 352.71 691.81
  Z
  M 860.82 656.70
  L 845.85 634.63
  A 1.44 1.44 72.8 0 0 844.66 634.00
  L 826.32 634.00
  Q 825.39 634.00 825.95 634.75
  L 850.54 667.64
  A 1.14 1.14 -45.5 0 1 850.55 668.99
  L 824.83 704.04
  Q 824.12 705.00 825.31 705.00
  L 843.31 705.00
  A 1.18 1.16 -72.8 0 0 844.28 704.48
  L 860.82 680.15
  A 0.73 0.71 45.3 0 1 862.01 680.17
  L 878.22 704.34
  A 1.00 0.98 -14.5 0 0 878.99 704.78
  Q 888.49 705.34 897.99 704.78
  Q 898.50 704.75 898.21 704.35
  L 872.29 668.96
  A 1.39 1.38 -44.8 0 1 872.30 667.32
  L 896.40 635.20
  Q 897.25 634.06 895.83 634.05
  L 877.91 634.00
  A 1.31 1.28 -72.2 0 0 876.85 634.56
  L 861.60 656.71
  A 0.48 0.47 45.4 0 1 860.82 656.70
  Z
  M 960.00 787.94
  A 0.44 0.44 0.0 0 0 959.56 787.50
  L 240.44 787.50
  A 0.44 0.44 0.0 0 0 240.00 787.94
  L 240.00 802.06
  A 0.44 0.44 0.0 0 0 240.44 802.50
  L 959.56 802.50
  A 0.44 0.44 0.0 0 0 960.00 802.06
  L 960.00 787.94
  Z"
/>
<path fill="#eeeeee" d="
  M 544.15 511.16
  A 0.77 0.76 14.6 0 1 543.75 510.49
  L 543.75 439.88
  A 1.00 1.00 -10.0 0 1 544.41 438.94
  L 599.16 419.10
  A 2.43 2.31 -43.5 0 1 600.77 419.10
  L 655.73 439.14
  A 0.73 0.70 -80.3 0 1 656.19 439.82
  L 656.19 510.43
  A 0.84 0.84 -14.3 0 1 655.75 511.17
  L 600.88 540.99
  A 1.72 1.71 -45.2 0 1 599.24 541.00
  L 544.15 511.16
  Z
  M 562.12 443.53
  L 599.35 460.32
  A 1.82 1.82 0.0 0 0 600.85 460.32
  L 637.88 443.58
  Q 639.25 442.96 637.83 442.44
  L 601.37 429.34
  Q 599.83 428.79 598.28 429.35
  L 562.17 442.46
  Q 560.83 442.95 562.12 443.53
  Z
  M 553.69 505.54
  L 594.57 527.77
  A 0.46 0.46 -75.8 0 0 595.25 527.36
  L 595.25 469.82
  A 1.57 1.55 -78.2 0 0 594.33 468.39
  L 554.18 450.34
  A 0.80 0.79 -78.0 0 0 553.07 451.07
  L 553.25 504.78
  A 0.88 0.84 -76.3 0 0 553.69 505.54
  Z
  M 604.94 469.08
  L 604.75 527.36
  A 0.48 0.47 75.8 0 0 605.45 527.78
  L 646.31 505.50
  A 0.87 0.84 -15.3 0 0 646.75 504.76
  L 646.81 450.94
  A 0.63 0.62 -12.0 0 0 645.93 450.37
  L 605.24 468.61
  A 0.52 0.50 78.8 0 0 604.94 469.08
  Z"
/>
<path fill="#393e46" d="
  M 562.12 443.53
  Q 560.83 442.95 562.17 442.46
  L 598.28 429.35
  Q 599.83 428.79 601.37 429.34
  L 637.83 442.44
  Q 639.25 442.96 637.88 443.58
  L 600.85 460.32
  A 1.82 1.82 -0.0 0 1 599.35 460.32
  L 562.12 443.53
  Z
  M 609.2186 442.6711
  A 9.23 4.65 1.0 0 0 600.0712 437.8607
  A 9.23 4.65 1.0 0 0 590.7614 442.3489
  A 9.23 4.65 1.0 0 0 599.9088 447.1593
  A 9.23 4.65 1.0 0 0 609.2186 442.6711
  Z"
/>
<ellipse fill="#eeeeee" cx="0.00" cy="0.00" transform="translate(599.99,442.51) rotate(1.0)" rx="9.23" ry="4.65"/>
<path fill="#393e46" d="
  M 553.69 505.54
  A 0.88 0.84 -76.3 0 1 553.25 504.78
  L 553.07 451.07
  A 0.80 0.79 -78.0 0 1 554.18 450.34
  L 594.33 468.39
  A 1.57 1.55 -78.2 0 1 595.25 469.82
  L 595.25 527.36
  A 0.46 0.46 -75.8 0 1 594.57 527.77
  L 553.69 505.54
  Z
  M 588.5551 482.6839
  A 6.38 4.12 65.9 0 0 589.7109 475.1777
  A 6.38 4.12 65.9 0 0 583.3449 471.0361
  A 6.38 4.12 65.9 0 0 582.1891 478.5423
  A 6.38 4.12 65.9 0 0 588.5551 482.6839
  Z
  M 576.7520 493.1779
  A 6.37 4.13 65.1 0 0 577.8161 485.6611
  A 6.37 4.13 65.1 0 0 571.3880 481.6221
  A 6.37 4.13 65.1 0 0 570.3239 489.1389
  A 6.37 4.13 65.1 0 0 576.7520 493.1779
  Z
  M 564.9029 503.4468
  A 6.44 4.14 67.9 0 0 566.3158 495.9224
  A 6.44 4.14 67.9 0 0 560.0571 491.5132
  A 6.44 4.14 67.9 0 0 558.6442 499.0376
  A 6.44 4.14 67.9 0 0 564.9029 503.4468
  Z"
/>
<path fill="#393e46" d="
  M 604.94 469.08
  A 0.52 0.50 78.8 0 1 605.24 468.61
  L 645.93 450.37
  A 0.63 0.62 -12.0 0 1 646.81 450.94
  L 646.75 504.76
  A 0.87 0.84 -15.3 0 1 646.31 505.50
  L 605.45 527.78
  A 0.48 0.47 75.8 0 1 604.75 527.36
  L 604.94 469.08
  Z
  M 614.6201 488.9861
  A 7.38 4.79 116.3 0 0 622.1842 484.4923
  A 7.38 4.79 116.3 0 0 621.1599 475.7539
  A 7.38 4.79 116.3 0 0 613.5958 480.2477
  A 7.38 4.79 116.3 0 0 614.6201 488.9861
  Z
  M 631.2590 500.3024
  A 7.33 4.85 115.2 0 0 638.7684 495.7350
  A 7.33 4.85 115.2 0 0 637.5010 487.0376
  A 7.33 4.85 115.2 0 0 629.9916 491.6050
  A 7.33 4.85 115.2 0 0 631.2590 500.3024
  Z"
/>
<ellipse fill="#eeeeee" cx="0.00" cy="0.00" transform="translate(585.95,476.86) rotate(65.9)" rx="6.38" ry="4.12"/>
<ellipse fill="#eeeeee" cx="0.00" cy="0.00" transform="translate(617.89,482.37) rotate(116.3)" rx="7.38" ry="4.79"/>
<ellipse fill="#eeeeee" cx="0.00" cy="0.00" transform="translate(574.07,487.40) rotate(65.1)" rx="6.37" ry="4.13"/>
<ellipse fill="#eeeeee" cx="0.00" cy="0.00" transform="translate(634.38,493.67) rotate(115.2)" rx="7.33" ry="4.85"/>
<ellipse fill="#eeeeee" cx="0.00" cy="0.00" transform="translate(562.48,497.48) rotate(67.9)" rx="6.44" ry="4.14"/>
<rect fill="#eeeeee" x="240.00" y="525.00" width="270.00" height="15.00" rx="0.27"/>
<rect fill="#eeeeee" x="690.01" y="525.00" width="269.98" height="15.00" rx="0.44"/>
<path fill="#eeeeee" d="
  M 675.55 643.99
  Q 681.30 633.44 693.50 632.24
  C 708.40 630.78 717.31 640.78 720.15 654.22
  C 723.74 671.24 721.60 704.04 697.75 705.79
  Q 683.36 706.84 676.18 694.45
  Q 675.18 692.73 675.00 694.78
  L 674.16 704.32
  A 0.61 0.55 2.0 0 1 673.56 704.83
  L 656.90 704.98
  A 0.66 0.64 -88.3 0 1 656.25 704.27
  Q 656.90 694.51 656.86 684.75
  Q 656.70 646.15 656.81 607.56
  A 0.50 0.49 -90.0 0 1 657.30 607.06
  L 674.41 607.00
  A 0.85 0.84 -90.0 0 1 675.25 607.85
  L 675.31 643.95
  Q 675.31 644.43 675.55 643.99
  Z
  M 686.61 692.92
  Q 690.88 694.20 694.67 691.64
  C 704.86 684.75 704.75 655.68 696.21 647.50
  C 691.40 642.90 684.29 644.15 680.17 649.12
  C 672.40 658.49 672.18 688.56 686.61 692.92
  Z"
/>
<path fill="#eeeeee" d="
  M 452.75 684.75
  C 452.75 691.20 454.63 695.68 462.20 693.93
  A 0.40 0.40 -6.4 0 1 462.69 694.32
  L 462.69 702.94
  A 0.71 0.71 80.1 0 1 462.22 703.61
  C 453.09 706.85 437.54 707.04 436.79 693.49
  Q 436.65 690.97 435.36 693.14
  Q 426.96 707.33 410.51 705.70
  C 396.25 704.28 390.61 693.10 392.45 680.03
  C 395.41 659.01 418.55 661.32 433.75 661.00
  A 0.52 0.51 -89.4 0 0 434.25 660.50
  C 434.57 651.84 432.93 641.78 421.19 644.44
  C 416.50 645.50 415.74 648.70 414.33 653.47
  A 0.65 0.62 9.3 0 1 413.69 653.91
  L 396.58 653.18
  A 1.17 1.16 6.6 0 1 395.48 651.80
  Q 398.35 636.93 414.01 633.30
  C 428.73 629.89 448.74 632.45 452.00 650.75
  C 453.78 660.74 452.75 673.91 452.75 684.75
  Z
  M 413.02 689.83
  C 416.46 694.71 423.96 693.51 427.75 690.00
  Q 435.49 682.84 434.07 671.50
  A 0.58 0.57 86.0 0 0 433.50 671.00
  C 425.36 671.07 411.08 669.18 411.37 682.33
  C 411.43 685.09 411.59 687.80 413.02 689.83
  Z"
/>
<path fill="#eeeeee" d="
  M 586.05 673.05
  C 585.86 685.60 593.69 696.98 607.76 692.77
  Q 613.55 691.04 615.88 685.52
  A 0.68 0.67 14.0 0 1 616.57 685.11
  L 632.74 686.54
  A 0.51 0.51 16.1 0 1 633.15 687.28
  Q 624.17 704.64 604.75 705.75
  Q 594.14 706.36 585.81 703.19
  C 567.90 696.37 563.87 672.52 568.19 656.19
  C 572.69 639.18 586.71 631.11 603.90 632.14
  C 626.13 633.47 634.48 652.03 634.32 671.81
  A 0.52 0.51 -89.4 0 1 633.81 672.32
  L 586.56 672.56
  A 0.52 0.50 -0.0 0 0 586.05 673.05
  Z
  M 616.30 660.32
  C 615.64 638.94 587.94 637.28 586.41 660.05
  A 0.88 0.87 -88.2 0 0 587.28 660.99
  L 615.81 660.83
  A 0.50 0.49 -1.7 0 0 616.30 660.32
  Z"
/>
<path fill="#eeeeee" d="
  M 779.48 705.65
  C 748.67 708.72 735.94 685.44 741.25 658.00
  C 744.44 641.52 755.84 633.10 771.92 632.10
  C 800.22 630.32 810.72 649.24 808.50 675.00
  C 806.99 692.52 796.63 703.94 779.48 705.65
  Z
  M 759.50 671.11
  C 760.02 680.37 761.62 693.10 773.75 693.25
  C 782.59 693.36 786.39 688.87 788.29 680.50
  C 790.51 670.70 791.68 647.21 778.00 645.00
  C 761.40 642.32 758.80 658.72 759.50 671.11
  Z"
/>
<path fill="#eeeeee" d="
  M 490.71 641.60
  Q 490.48 646.52 492.19 641.90
  C 497.17 628.51 515.20 628.25 517.53 643.98
  Q 517.74 645.40 518.31 644.08
  C 520.35 639.28 523.40 634.36 528.65 632.81
  C 545.18 627.93 548.05 643.90 548.08 656.00
  Q 548.14 680.16 547.82 704.31
  A 0.54 0.52 -90.0 0 1 547.31 704.84
  L 533.91 704.98
  A 0.93 0.90 89.7 0 1 533.00 704.05
  Q 533.00 682.88 533.15 661.50
  C 533.18 657.35 533.39 646.49 529.04 644.35
  C 519.22 639.52 519.91 667.65 520.00 671.00
  Q 520.27 680.97 519.82 704.31
  A 0.54 0.51 -89.4 0 1 519.31 704.84
  L 505.68 704.84
  A 0.54 0.50 89.4 0 1 505.18 704.31
  Q 504.68 673.68 505.00 665.00
  Q 505.29 657.09 504.20 649.26
  C 503.66 645.35 499.00 640.99 495.98 645.96
  C 491.76 652.95 491.76 664.32 491.84 672.25
  Q 492.00 688.00 492.00 704.44
  A 0.56 0.56 0.2 0 1 491.44 705.00
  L 477.80 705.00
  A 0.82 0.81 89.6 0 1 476.99 704.19
  L 476.74 634.52
  A 0.52 0.51 90.0 0 1 477.25 634.00
  L 489.16 634.00
  A 1.29 1.29 88.4 0 1 490.45 635.22
  Q 490.77 640.35 490.71 641.60
  Z"
/>
<path fill="#eeeeee" d="
  M 352.43 691.75
  Q 344.89 704.62 329.51 703.80
  C 306.73 702.60 304.25 674.43 307.21 657.77
  C 309.48 645.01 315.54 634.83 329.02 633.31
  C 339.26 632.16 347.20 635.92 352.26 644.89
  Q 352.87 645.97 352.97 644.72
  L 353.73 634.66
  A 0.74 0.71 2.1 0 1 354.47 634.00
  L 370.74 634.00
  A 0.50 0.50 -89.4 0 1 371.24 634.51
  Q 370.58 689.04 371.00 701.50
  C 371.69 721.81 360.15 733.52 339.81 733.81
  C 325.73 734.01 312.96 729.56 309.25 714.76
  A 0.46 0.45 79.4 0 1 309.63 714.19
  L 327.07 712.23
  A 0.63 0.60 77.5 0 1 327.71 712.66
  C 331.68 725.33 348.67 724.80 351.50 712.25
  Q 353.28 704.33 352.71 691.81
  Q 352.69 691.32 352.43 691.75
  Z
  M 336.55 690.72
  C 343.45 692.45 348.12 687.90 350.55 681.73
  C 354.03 672.88 353.71 659.55 348.61 651.36
  C 343.77 643.59 332.49 644.02 328.81 652.06
  C 324.41 661.68 321.90 687.06 336.55 690.72
  Z"
/>
<path fill="#eeeeee" d="
  M 860.82 656.70
  A 0.48 0.47 45.4 0 0 861.60 656.71
  L 876.85 634.56
  A 1.31 1.28 -72.2 0 1 877.91 634.00
  L 895.83 634.05
  Q 897.25 634.06 896.40 635.20
  L 872.30 667.32
  A 1.39 1.38 -44.8 0 0 872.29 668.96
  L 898.21 704.35
  Q 898.50 704.75 897.99 704.78
  Q 888.49 705.34 878.99 704.78
  A 1.00 0.98 -14.5 0 1 878.22 704.34
  L 862.01 680.17
  A 0.73 0.71 45.3 0 0 860.82 680.15
  L 844.28 704.48
  A 1.18 1.16 -72.8 0 1 843.31 705.00
  L 825.31 705.00
  Q 824.12 705.00 824.83 704.04
  L 850.55 668.99
  A 1.14 1.14 -45.5 0 0 850.54 667.64
  L 825.95 634.75
  Q 825.39 634.00 826.32 634.00
  L 844.66 634.00
  A 1.44 1.44 72.8 0 1 845.85 634.63
  L 860.82 656.70
  Z"
/>
<path fill="#393e46" d="
  M 586.41 660.05
  C 587.94 637.28 615.64 638.94 616.30 660.32
  A 0.50 0.49 -1.7 0 1 615.81 660.83
  L 587.28 660.99
  A 0.88 0.87 -88.2 0 1 586.41 660.05
  Z"
/>
<path fill="#393e46" d="
  M 686.61 692.92
  C 672.18 688.56 672.40 658.49 680.17 649.12
  C 684.29 644.15 691.40 642.90 696.21 647.50
  C 704.75 655.68 704.86 684.75 694.67 691.64
  Q 690.88 694.20 686.61 692.92
  Z"
/>
<path fill="#393e46" d="
  M 773.75 693.25
  C 761.62 693.10 760.02 680.37 759.50 671.11
  C 758.80 658.72 761.40 642.32 778.00 645.00
  C 791.68 647.21 790.51 670.70 788.29 680.50
  C 786.39 688.87 782.59 693.36 773.75 693.25
  Z"
/>
<path fill="#393e46" d="
  M 336.55 690.72
  C 321.90 687.06 324.41 661.68 328.81 652.06
  C 332.49 644.02 343.77 643.59 348.61 651.36
  C 353.71 659.55 354.03 672.88 350.55 681.73
  C 348.12 687.90 343.45 692.45 336.55 690.72
  Z"
/>
<path fill="#393e46" d="
  M 413.02 689.83
  C 411.59 687.80 411.43 685.09 411.37 682.33
  C 411.08 669.18 425.36 671.07 433.50 671.00
  A 0.58 0.57 86.0 0 1 434.07 671.50
  Q 435.49 682.84 427.75 690.00
  C 423.96 693.51 416.46 694.71 413.02 689.83
  Z"
/>
<rect fill="#eeeeee" x="240.00" y="787.50" width="720.00" height="15.00" rx="0.44"/>
</svg>
